HIERARCHY
ROOT hip
{
  OFFSET 0 0 0
  CHANNELS 6 Xposition Yposition Zposition Zrotation Yrotation Xrotation
  JOINT abdomen
  {
    OFFSET 0 20.6881 -0.73152
    CHANNELS 3 Zrotation Xrotation Yrotation
    JOINT chest
    {
      OFFSET 0 11.7043 -0.48768
      CHANNELS 3 Zrotation Xrotation Yrotation
      JOINT neck
      {
        OFFSET 0 22.1894 -2.19456
        CHANNELS 3 Zrotation Xrotation Yrotation
        JOINT head
        {
          OFFSET -0.24384 7.07133 1.2192
          CHANNELS 3 Zrotation Xrotation Yrotation
          JOINT leftEye
          {
            OFFSET 4.14528 8.04674 8.04672
            CHANNELS 3 Zrotation Xrotation Yrotation
            End Site
            {
              OFFSET 1 0 0
            }
          }
          JOINT rightEye
          {
            OFFSET -3.6576 8.04674 8.04672
            CHANNELS 3 Zrotation Xrotation Yrotation
            End Site
            {
              OFFSET 1 0 0
            }
          }
        }
      }
      JOINT rCollar
      {
        OFFSET -2.68224 19.2634 -4.8768
        CHANNELS 3 Zrotation Xrotation Yrotation
        JOINT rShldr
        {
          OFFSET -8.77824 -1.95073 1.46304
          CHANNELS 3 Zrotation Xrotation Yrotation
          JOINT rForeArm
          {
            OFFSET -28.1742 -1.7115 0.48768
            CHANNELS 3 Zrotation Xrotation Yrotation
            JOINT rHand
            {
              OFFSET -22.5879 0.773209 7.07136
              CHANNELS 3 Zrotation Xrotation Yrotation
              JOINT rThumb1
              {
                OFFSET -1.2192 -0.487915 3.41376
                CHANNELS 3 Zrotation Xrotation Yrotation
                JOINT rThumb2
                {
                  OFFSET -3.37035 -0.52449 3.41376
                  CHANNELS 3 Zrotation Xrotation Yrotation
                  End Site
                  {
                    OFFSET -1.78271 -1.18214 1.43049
                  }
                }
              }
              JOINT rIndex1
              {
                OFFSET -7.75947 0.938293 5.60832
                CHANNELS 3 Zrotation Xrotation Yrotation
                JOINT rIndex2
                {
                  OFFSET -2.54057 -0.884171 1.56538
                  CHANNELS 3 Zrotation Xrotation Yrotation
                  End Site
                  {
                    OFFSET -1.62519 -0.234802 1.16502
                  }
                }
              }
              JOINT rMid1
              {
                OFFSET -8.24714 1.18213 3.41376
                CHANNELS 3 Zrotation Xrotation Yrotation
                JOINT rMid2
                {
                  OFFSET -3.10165 -0.590103 1.0647
                  CHANNELS 3 Zrotation Xrotation Yrotation
                  End Site
                  {
                    OFFSET -2.48547 -0.328903 0.83742
                  }
                }
              }
              JOINT rRing1
              {
                OFFSET -8.82822 0.546677 1.51678
                CHANNELS 3 Zrotation Xrotation Yrotation
                JOINT rRing2
                {
                  OFFSET -2.60934 -0.819778 -0.0198488
                  CHANNELS 3 Zrotation Xrotation Yrotation
                  End Site
                  {
                    OFFSET -2.33842 -0.294052 0.168128
                  }
                }
              }
              JOINT rPinky1
              {
                OFFSET -8.27202 -0.0477905 -0.4584
                CHANNELS 3 Zrotation Xrotation Yrotation
                JOINT rPinky2
                {
                  OFFSET -1.82734 -0.647385 -0.700984
                  CHANNELS 3 Zrotation Xrotation Yrotation
                  End Site
                  {
                    OFFSET -1.69225 -0.51767 -0.607171
                  }
                }
              }
            }
          }
        }
      }
      JOINT lCollar
      {
        OFFSET 2.68224 19.2634 -4.8768
        CHANNELS 3 Zrotation Xrotation Yrotation
        JOINT lShldr
        {
          OFFSET 8.77824 -1.95073 1.46304
          CHANNELS 3 Zrotation Xrotation Yrotation
          JOINT lForeArm
          {
            OFFSET 28.1742 -1.7115 0.48768
            CHANNELS 3 Zrotation Xrotation Yrotation
            JOINT lHand
            {
              OFFSET 22.5879 0.773209 7.07136
              CHANNELS 3 Zrotation Xrotation Yrotation
              JOINT lThumb1
              {
                OFFSET 1.2192 -0.487915 3.41376
                CHANNELS 3 Zrotation Xrotation Yrotation
                JOINT lThumb2
                {
                  OFFSET 3.37035 -0.52449 3.41376
                  CHANNELS 3 Zrotation Xrotation Yrotation
                  End Site
                  {
                    OFFSET 1.78271 -1.18214 1.43049
                  }
                }
              }
              JOINT lIndex1
              {
                OFFSET 7.75947 0.938293 5.60832
                CHANNELS 3 Zrotation Xrotation Yrotation
                JOINT lIndex2
                {
                  OFFSET 2.54057 -0.884171 1.56538
                  CHANNELS 3 Zrotation Xrotation Yrotation
                  End Site
                  {
                    OFFSET 1.62519 -0.234802 1.16502
                  }
                }
              }
              JOINT lMid1
              {
                OFFSET 8.24714 1.18213 3.41376
                CHANNELS 3 Zrotation Xrotation Yrotation
                JOINT lMid2
                {
                  OFFSET 3.10165 -0.590103 1.0647
                  CHANNELS 3 Zrotation Xrotation Yrotation
                  End Site
                  {
                    OFFSET 2.48547 -0.328903 0.83742
                  }
                }
              }
              JOINT lRing1
              {
                OFFSET 8.82822 0.546677 1.51678
                CHANNELS 3 Zrotation Xrotation Yrotation
                JOINT lRing2
                {
                  OFFSET 2.60934 -0.819778 -0.0198488
                  CHANNELS 3 Zrotation Xrotation Yrotation
                  End Site
                  {
                    OFFSET 2.33842 -0.294052 0.168128
                  }
                }
              }
              JOINT lPinky1
              {
                OFFSET 8.27202 -0.0477905 -0.4584
                CHANNELS 3 Zrotation Xrotation Yrotation
                JOINT lPinky2
                {
                  OFFSET 1.82734 -0.647385 -0.700984
                  CHANNELS 3 Zrotation Xrotation Yrotation
                  End Site
                  {
                    OFFSET 1.69225 -0.51767 -0.607171
                  }
                }
              }
            }
          }
        }
      }
    }
  }
  JOINT rButtock
  {
    OFFSET -8.77824 4.35084 1.2192
    CHANNELS 3 Zrotation Xrotation Yrotation
    JOINT rThigh
    {
      OFFSET 0 -1.70687 -2.19456
      CHANNELS 3 Zrotation Xrotation Yrotation
      JOINT rShin
      {
        OFFSET 0 -36.8199 0.73152
        CHANNELS 3 Zrotation Xrotation Yrotation
        JOINT rFoot
        {
          OFFSET 0.73152 -45.1104 -5.12064
          CHANNELS 3 Zrotation Xrotation Yrotation
          End Site
          {
            OFFSET -1.1221 -3.69964 12.103
          }
        }
      }
    }
  }
  JOINT lButtock
  {
    OFFSET 8.77824 4.35084 1.2192
    CHANNELS 3 Zrotation Xrotation Yrotation
    JOINT lThigh
    {
      OFFSET 0 -1.70687 -2.19456
      CHANNELS 3 Zrotation Xrotation Yrotation
      JOINT lShin
      {
        OFFSET 0 -36.8199 0.73152
        CHANNELS 3 Zrotation Xrotation Yrotation
        JOINT lFoot
        {
          OFFSET -0.73152 -45.1104 -5.12064
          CHANNELS 3 Zrotation Xrotation Yrotation
          End Site
          {
            OFFSET 1.1221 -3.69964 12.103
          }
        }
      }
    }
  }
}
MOTION
Frames:	4
Frame Time:	0.00833333
17.5917 84.6112 -135.655 4.4447 -134.682 1.8044 -5.12807 21.4936 1.25555 -3.72201 6.51703 -0.512363 4.24985 1.95307 3.34091 -5.26589 2.97347 4.41594 -0.0 0.0 0.0 -0.0 0.0 0.0 -1.14574e-13 7.95068e-14 1.39926e-14 -9.22575 40.4934 67.2678 -27.9709 -40.5661 84.9413 -3.39714 -45.2274 -8.14406 -1.73576e-09 -5.93953e-10 -1.63038e-09 -2.93733e-09 -1.04029e-09 -2.8647e-09 -1.73575e-09 -5.93953e-10 -1.63039e-09 7.73091 5.47488 0.417314 -1.73576e-09 -5.93952e-10 -1.63038e-09 2.90554 0.965183 0.102902 -1.73575e-09 -5.93953e-10 -1.63038e-09 10.2786 0.731801 0.0259123 -1.73576e-09 -5.93954e-10 -1.63038e-09 2.22167 -0.733487 -0.20892 -1.1462e-13 7.95205e-14 1.38404e-14 -29.8424 53.3716 -38.6632 28.3649 -37.5939 -79.709 6.33426 -55.7982 11.9334 2.48626e-09 -3.8448e-10 9.11101e-10 4.23818e-09 -1.26414e-09 1.67945e-09 2.48625e-09 -3.84488e-10 9.11106e-10 -7.73091 5.47488 -0.417314 2.48626e-09 -3.84496e-10 9.11101e-10 -2.90554 0.965183 -0.102902 2.48625e-09 -3.84481e-10 9.11097e-10 -10.2786 0.731801 -0.0259123 2.48626e-09 -3.84482e-10 9.11086e-10 -2.22167 -0.733487 0.20892 -2.03217e-16 0.0 -3.88251e-19 -6.87032 -19.9477 9.76203 -0.299531 34.9987 0.451531 -9.45881 -10.2235 -27.3206 2.03217e-16 0.0 3.88251e-19 9.81066 -22.387 0.713501 0.0972064 32.3663 -0.517586 2.22803 -11.2411 6.38407
17.4339 84.63 -135.668 4.5949 -134.448 1.6776 -5.2447 21.4106 1.27495 -3.75148 6.57304 -0.507331 4.17231 2.01395 3.30509 -5.11197 2.99967 4.35709 -0.0 0.0 0.0 -0.0 0.0 0.0 -5.23436e-14 7.36585e-14 -2.04409e-13 -8.97567 40.617 67.0106 -27.9389 -40.7254 85.2313 -3.33457 -44.9175 -8.05577 -3.75104e-09 -3.38324e-10 -1.54154e-09 -6.41812e-09 -5.72231e-10 -2.7827e-09 -3.75104e-09 -3.38323e-10 -1.54155e-09 7.73091 5.47488 0.417314 -3.75104e-09 -3.38322e-10 -1.54154e-09 2.90554 0.965183 0.102902 -3.75103e-09 -3.38324e-10 -1.54154e-09 10.2786 0.731801 0.0259123 -3.75104e-09 -3.38324e-10 -1.54154e-09 2.22167 -0.733487 -0.20892 -5.24196e-14 7.36899e-14 -2.0456e-13 -30.3437 53.3917 -38.3732 28.3565 -37.7064 -79.9019 6.11314 -55.1977 11.665 4.75686e-09 -4.16307e-09 2.62868e-09 8.06969e-09 -8.42473e-09 4.72897e-09 4.75686e-09 -4.16306e-09 2.62868e-09 -7.73091 5.47488 -0.417314 4.75686e-09 -4.16308e-09 2.62867e-09 -2.90554 0.965183 -0.102902 4.75686e-09 -4.16307e-09 2.62867e-09 -10.2786 0.731801 -0.0259123 4.75686e-09 -4.16307e-09 2.62866e-09 -2.22167 -0.733487 0.20892 -2.03217e-16 0.0 -3.88251e-19 -6.8723 -20.2761 9.64651 -0.311721 35.6379 0.447198 -9.18585 -9.73602 -27.1713 2.03217e-16 0.0 3.88251e-19 9.78569 -22.4012 0.588258 0.0972552 32.4322 -0.519725 2.20919 -11.2662 6.32045
17.2821 84.647 -135.684 4.7421 -134.229 1.5477 -5.38493 21.3328 1.30616 -3.76447 6.62483 -0.501887 4.08604 2.0819 3.27366 -4.97726 2.99149 4.31116 -0.0 0.0 0.0 -0.0 0.0 0.0 -3.15696e-15 4.76897e-14 -3.43401e-13 -8.73714 40.7406 66.7576 -27.9058 -40.8848 85.5223 -3.27535 -44.6189 -7.97167 -4.99218e-09 -1.56238e-10 -1.43315e-09 -8.56385e-09 -2.41356e-10 -2.6398e-09 -4.99218e-09 -1.56237e-10 -1.43315e-09 7.73091 5.47488 0.417314 -4.99218e-09 -1.56236e-10 -1.43314e-09 2.90554 0.965183 0.102902 -4.99218e-09 -1.56238e-10 -1.43315e-09 10.2786 0.731801 0.0259123 -4.99218e-09 -1.56238e-10 -1.43315e-09 2.22167 -0.733487 -0.20892 -3.25426e-15 4.77262e-14 -3.4355e-13 -30.8192 53.4256 -38.0832 28.3476 -37.8211 -80.099 5.90726 -54.6169 11.4132 6.11121e-09 -6.75462e-09 3.69897e-09 1.03537e-08 -1.32769e-08 6.62594e-09 6.11121e-09 -6.75461e-09 3.69896e-09 -7.73091 5.47488 -0.417314 6.11121e-09 -6.75463e-09 3.69896e-09 -2.90554 0.965183 -0.102902 6.1112e-09 -6.75462e-09 3.69896e-09 -10.2786 0.731801 -0.0259123 6.11121e-09 -6.75462e-09 3.69896e-09 -2.22167 -0.733487 0.20892 -2.03217e-16 0.0 -3.88251e-19 -6.88971 -20.6245 9.52902 -0.325023 36.2941 0.442244 -8.87587 -9.19599 -26.9782 2.03217e-16 0.0 3.88251e-19 9.77194 -22.3966 0.497158 0.0969988 32.4945 -0.522652 2.18743 -11.3018 6.24021
17.1363 84.6582 -135.709 4.8803 -134.052 1.4101 -5.55155 21.2621 1.35628 -3.75643 6.66767 -0.494513 3.98724 2.16408 3.24497 -4.85573 2.93944 4.27612 -0.0 0.0 0.0 -0.0 0.0 0.0 1.29221e-14 -4.73199e-15 -3.44293e-13 -8.50337 40.8688 66.4973 -27.8714 -41.0451 85.8153 -3.218 -44.325 -7.88979 -5.09636e-09 -1.07615e-10 -1.34895e-09 -8.74724e-09 -1.56374e-10 -2.49839e-09 -5.09636e-09 -1.07613e-10 -1.34896e-09 7.73091 5.47488 0.417314 -5.09636e-09 -1.07612e-10 -1.34895e-09 2.90554 0.965183 0.102902 -5.09636e-09 -1.07614e-10 -1.34895e-09 10.2786 0.731801 0.0259123 -5.09636e-09 -1.07614e-10 -1.34896e-09 2.22167 -0.733487 -0.20892 1.28154e-14 -4.71101e-15 -3.44438e-13 -31.2808 53.4786 -37.7841 28.3377 -37.9407 -80.3044 5.70926 -54.0394 11.1696 6.17491e-09 -7.64107e-09 3.83898e-09 1.04588e-08 -1.48171e-08 6.86775e-09 6.17491e-09 -7.64106e-09 3.83898e-09 -7.73091 5.47488 -0.417314 6.17491e-09 -7.64108e-09 3.83898e-09 -2.90554 0.965183 -0.102902 6.1749e-09 -7.64108e-09 3.83897e-09 -10.2786 0.731801 -0.0259123 6.17491e-09 -7.64107e-09 3.83897e-09 -2.22167 -0.733487 0.20892 -2.03217e-16 0.0 -3.88251e-19 -6.92364 -20.9951 9.40744 -0.339457 36.967 0.436026 -8.51845 -8.57969 -26.738 2.03217e-16 0.0 3.88251e-19 9.77645 -22.3722 0.450478 0.0964892 32.5552 -0.526492 2.16112 -11.3501 6.13497
